<svg width="131" height="172" viewBox="0 0 131 172" fill="none" xmlns="http://www.w3.org/2000/svg">
<path d="M128.676 89.765C125.88 91.952 123.034 94.075 120.443 96.3887C108.461 107.086 100.722 120.159 99.7054 136.657L99.7059 136.658C99.1514 145.688 100.901 154.318 104.398 162.545L104.399 162.545C104.613 163.052 104.63 163.274 104.629 163.34C104.616 163.355 104.595 163.381 104.555 163.416C104.444 163.514 104.253 163.646 103.928 163.822C100.728 165.557 97.5828 167.424 94.4558 169.243C83.9751 156.336 72.2151 149.091 59.3312 146.761C46.5993 144.458 32.9559 146.988 18.6178 153.282C17.1919 148.765 15.777 144.32 14.4418 139.85C14.4465 139.839 14.4492 139.826 14.455 139.814C35.3064 132.32 55.4832 130.687 74.6876 143.531L74.688 143.529C75.1926 143.87 76.1482 144.674 77.5812 144.855L80.5795 145.234L2.1225 9.34208C1.7156 8.63725 1.72535 8.24203 1.78298 8.03721C1.84329 7.82298 2.05719 7.45716 2.80214 7.02706L11.4049 2.06027L89.4093 137.168L92.2025 136.287C90.0493 111.725 101.524 94.4219 119.015 79.2476C122.366 82.8931 125.517 86.3263 128.676 89.765ZM14.3688 139.61C14.3684 139.609 14.3681 139.607 14.3677 139.606L14.3665 139.6C14.3674 139.603 14.3679 139.607 14.3688 139.61Z" stroke="#B17AFD" stroke-width="3"/>
</svg>
